<?xml version="1.0" encoding="utf-8"?>
<!-- Generator: Adobe Illustrator 25.0.1, SVG Export Plug-In . SVG Version: 6.00 Build 0)  -->
<svg version="1.1" id="Layer_1" xmlns="http://www.w3.org/2000/svg" xmlns:xlink="http://www.w3.org/1999/xlink" x="0px" y="0px"
	 viewBox="0 0 1200 1200" style="enable-background:new 0 0 1200 1200;" xml:space="preserve">
<style type="text/css">
	.st0{fill:#018ECA;}
</style>
<g>
	<path class="st0" d="M552.7,443.5c7,20.6,23.4,23.4,0,31.2l-62.4,31.2l-62.4-62.3c-8.2-24.4,2-40.1,31.2-62.4l62.4,31.2
		C529.2,421.8,550.2,436.2,552.7,443.5z"/>
	<path class="st0" d="M490.3,193.8c-18.8-9.2-41.4-7-62.4,0c-11,3.7-18.4,20.1-31.2,31.2v93.6l93.6-31.2
		c25.7-29.2,37.3-44.1,31.2-62.4C516.6,210.5,509.2,203.3,490.3,193.8L490.3,193.8z"/>
	<path class="st0" d="M746.9,319.5l-7-0.9c-3.6,1.2-30.3-21.2-62.3-31.2c-15.4-5.3-15.6,6.1-31.2,0c-22.1,7.5-25.8,26-31.2,62.4
		c-5.4,36.5-12.3,88.1,0,124.8c3.3,9.9,18.9,18.8,31.2,31.2l31.2,31.2h31.1c40.7-17.8,56.2-60.3,62.5-62.4
		c14.6-8.8,26.1-34.8,31.2-62.4c4.9-27.7,8.5-36.6,0-62.4C792.5,320.6,766.6,313,746.9,319.5L746.9,319.5z"/>
	<path class="st0" d="M739.9,599.4v62.4c15.7,13.8,32,26.7,62.5,31.2l62.3-31.2l-31.2-93.6L739.9,599.4z"/>
	<path class="st0" d="M1114.2,599.4c-41.6-46.1-63.8-51.6-124.8-31.2h-31.2c-29,25.6-42.3,45.4-62.4,93.6
		c-19.6,46-40,98.3-31.2,124.8c0.8,2.1,25.5,29.3,62.5,62.4c38.9,32.1,57.6,51.6,62.3,62.4l124.8-31.2
		c13.4-4.4,65.6-115.4,62.4-124.7C1151.6,680.2,1139.7,628.2,1114.2,599.4L1114.2,599.4z"/>
	<path class="st0" d="M1021.7,1198.3c-0.3-2.1-2.1-6.2-1-6.2c-23.4-33.2-123.5-112.1-124.8-124.8c-1.5-13.5-29.4-62-62.4-93.6
		c-14.2-22.4-15.5-39.5-31.2-62.4c-15.7-22.7-44.9-69.4-62.5-93.6l-117.7-73.9c-17.1-9.2-115.4-5.9-252.2-150.6l-4.5-87.5
		c-18.4-22.5-56.6-76.2-62.4-93.6C267.1,304.7,291,216.9,271.9,69l-69.4-46.5l-83-15.9C89.8,0,23.2,0,23.2,0v1200h1001.2
		L1021.7,1198.3z"/>
</g>
</svg>
