<?xml version="1.0" encoding="utf-8"?>
<!-- Generator: Adobe Illustrator 25.0.1, SVG Export Plug-In . SVG Version: 6.00 Build 0)  -->
<svg version="1.1" id="Layer_1" xmlns="http://www.w3.org/2000/svg" xmlns:xlink="http://www.w3.org/1999/xlink" x="0px" y="0px"
	 viewBox="0 0 1200 1200" style="enable-background:new 0 0 1200 1200;" xml:space="preserve">
<style type="text/css">
	.st0{fill:#018ECA;stroke:#FFFFFF;stroke-width:18;stroke-miterlimit:10;}
	.st1{fill:#018ECA;}
	.st2{fill:none;stroke:#018ECA;stroke-width:37;stroke-linecap:round;stroke-miterlimit:10;}
</style>
<path class="st0" d="M1168.1,1151.5L725.9,733.2c-7.5-7.7-17.6-12.6-28.4-13.7c-10.8-1.1-21.6,1.6-30.6,7.7
	c-19.6,13.8-43,21.2-66.9,21.2c-23.9,0-47.3-7.4-66.9-21.2c-9-6.1-19.8-8.8-30.6-7.7c-10.8,1.1-20.9,6-28.4,13.7L31.9,1151.5
	c-3.3,3.3-4.4,8.4-2.6,12.8c1.8,4.4,6.1,7.2,10.9,7.2h1119.5c4.8,0,9-2.9,10.9-7.2C1172.4,1159.9,1171.5,1154.9,1168.1,1151.5
	L1168.1,1151.5z"/>
<path class="st1" d="M623.8,611.9c0,12.8,6.8,24.6,17.9,31c11,6.4,24.7,6.4,35.7,0c11-6.4,17.9-18.2,17.9-31l-0.1-191.7
	c-1.9-38.8,11.6-76.7,37.6-105.5c26-28.9,62.5-46,101.3-48c29.1-1.4,57.6,8.7,79.3,28.3c21.6,19.5,34.6,46.9,36,76
	c1,21.4-6.4,42.4-20.8,58.3c-14.4,15.9-34.5,25.4-55.9,26.5c-15.2,0.9-30.2-4.4-41.5-14.7c-11.3-10.3-18.1-24.7-18.8-39.9
	c-0.7-12.8-8.1-24.1-19.4-29.9c-11.3-5.8-25-5.1-35.6,1.8c-10.7,6.9-17,19-16.3,31.7c1.8,34.1,17,66.2,42.3,89.2
	c25.3,23,58.8,34.9,92.9,33.2c40.3-2,78.2-20,105.3-49.9s41.2-69.4,39.2-109.7c-1.6-31.8-11.5-62.6-28.8-89.4
	c-17.2-26.8-41.3-48.5-69.6-63c-28.4-14.5-60-21.3-91.8-19.7c-57.3,2.9-111.3,28.3-150,70.8c-38.7,42.5-59.1,98.5-56.7,155.8
	L623.8,611.9z"/>
<path class="st1" d="M365.7,311.3c12.7,0.6,24.7-5.7,31.5-16.4c6.9-10.7,7.5-24.2,1.8-35.5c-5.8-11.3-17.1-18.7-29.8-19.4
	c-15.5-0.9-30.1-7.8-40.5-19.4c-10.4-11.5-15.8-26.8-15-42.3c1-21.7,10.6-42.2,26.7-56.9s37.3-22.4,59.2-21.3
	c29.8,1.8,57.7,15.3,77.5,37.7s29.8,51.7,27.9,81.5v392.6c0,12.7,6.8,24.4,17.7,30.7c11,6.3,24.5,6.3,35.4,0s17.7-18,17.7-30.7
	L575.8,221c2.5-48.4-14.3-95.8-46.7-131.9c-32.4-36.1-77.5-57.7-125.9-60.4c-40.6-1.9-80.3,12.4-110.4,39.8
	c-30.1,27.4-48,65.6-49.8,106.2c-1.8,34.4,10.1,68,33.1,93.6C299.1,293.9,331.3,309.4,365.7,311.3L365.7,311.3z"/>
<path class="st2" d="M269.8,584.2c0,0,131.1,5.7,211,92.2"/>
<path class="st2" d="M927.7,584.2c0,0-131.1,5.7-211,92.2"/>
<circle class="st2" cx="206.1" cy="570.4" r="13.8"/>
<circle class="st2" cx="995.8" cy="584.2" r="13.8"/>
<path class="st0" d="M1168.1,1151.5L814.5,817c0,0-77.3-1.2-128,66.4C635.9,951,628.3,997,564.9,929.9
	c-63.4-67.2-227.5-67.3-227.5-67.3L31.9,1151.5c-3.3,3.3-4.4,8.4-2.6,12.8c1.8,4.4,6.1,7.2,10.9,7.2h1119.5c4.8,0,9-2.9,10.9-7.2
	C1172.4,1159.9,1171.5,1154.9,1168.1,1151.5z"/>
</svg>
