<?xml version="1.0" encoding="UTF-8" standalone="no"?>
<!-- Generator: Adobe Illustrator 25.4.1, SVG Export Plug-In . SVG Version: 6.00 Build 0)  -->

<svg
   version="1.1"
   id="Layer_1"
   x="0px"
   y="0px"
   viewBox="0 0 445 442"
   style="enable-background:new 0 0 445 442;"
   xml:space="preserve"
   sodipodi:docname="noun-drought-4145139.svg"
   inkscape:version="1.2.2 (b0a8486541, 2022-12-01)"
   xmlns:inkscape="http://www.inkscape.org/namespaces/inkscape"
   xmlns:sodipodi="http://sodipodi.sourceforge.net/DTD/sodipodi-0.dtd"
   xmlns="http://www.w3.org/2000/svg"
   xmlns:svg="http://www.w3.org/2000/svg"><defs
   id="defs91" /><sodipodi:namedview
   id="namedview89"
   pagecolor="#ffffff"
   bordercolor="#666666"
   borderopacity="1.0"
   inkscape:showpageshadow="2"
   inkscape:pageopacity="0.0"
   inkscape:pagecheckerboard="0"
   inkscape:deskcolor="#d1d1d1"
   showgrid="false"
   inkscape:zoom="1.9547511"
   inkscape:cx="172.40046"
   inkscape:cy="221"
   inkscape:window-width="946"
   inkscape:window-height="1040"
   inkscape:window-x="2884"
   inkscape:window-y="8"
   inkscape:window-maximized="1"
   inkscape:current-layer="Layer_1" />
<g
   id="g86"
   style="fill:#018eca;fill-opacity:1">
	<path
   d="M406.6,254.4h25.7v-11.2H16.1v11.2h63.4l25.3,40.8l-29.7,44.1l-56.7-23.2l-4.2,10.4l51.9,21.2l-53.3,39.9l6.7,9l59-44.1   l110.8,25.1l-14.9,50.8l10.8,3.2l15.3-52.3l109.1,6.8l44.8,47.4l8.1-7.7l-43.7-46.3l33.6-68.8l76.9,47.9l5.9-9.5l-76-47   L406.6,254.4z M348.3,296.8l-63-10.8l-1.1-31.7h106.4L348.3,296.8z M225.1,310.2l-34.4-25.5l21.3-30.1l61,0l1.1,32.9L225.1,310.2z    M92.9,254.2h105.4l-18.6,26.2l-65.4,8.9L92.9,254.2z M86.4,342.5l28.3-42.1l66.6-8.8l35.8,26.7l-23.9,48.4L86.4,342.5z    M228.3,320.9l52.2-24.2l61.3,10.4L309,374.8L205,368.1L228.3,320.9z"
   id="path2"
   style="fill:#018eca;fill-opacity:1" />
	<path
   d="M41.6,169c0,4.6-3.8,8.4-8.4,8.4c-4.6,0-8.4-3.8-8.4-8.4s3.8-8.4,8.4-8.4C37.9,160.6,41.6,164.4,41.6,169"
   id="path4"
   style="fill:#018eca;fill-opacity:1" />
	<path
   d="M66,59.1c0,4.6-3.8,8.4-8.4,8.4c-4.6,0-8.4-3.8-8.4-8.4c0-4.6,3.8-8.4,8.4-8.4C62.2,50.7,66,54.5,66,59.1"
   id="path6"
   style="fill:#018eca;fill-opacity:1" />
	<path
   d="M90.4,169c0,4.6-3.8,8.4-8.4,8.4c-4.6,0-8.4-3.8-8.4-8.4s3.8-8.4,8.4-8.4C86.6,160.6,90.4,164.4,90.4,169"
   id="path8"
   style="fill:#018eca;fill-opacity:1" />
	<path
   d="M139.1,169c0,4.6-3.8,8.4-8.4,8.4c-4.6,0-8.4-3.8-8.4-8.4s3.8-8.4,8.4-8.4C135.4,160.6,139.1,164.4,139.1,169"
   id="path10"
   style="fill:#018eca;fill-opacity:1" />
	<path
   d="M187.9,169c0,4.6-3.8,8.4-8.4,8.4s-8.4-3.8-8.4-8.4s3.8-8.4,8.4-8.4S187.9,164.4,187.9,169"
   id="path12"
   style="fill:#018eca;fill-opacity:1" />
	<path
   d="M236.7,169c0,4.6-3.8,8.4-8.4,8.4c-4.6,0-8.4-3.8-8.4-8.4s3.8-8.4,8.4-8.4C232.9,160.6,236.7,164.4,236.7,169"
   id="path14"
   style="fill:#018eca;fill-opacity:1" />
	<path
   d="M285.5,169c0,4.6-3.8,8.4-8.4,8.4c-4.6,0-8.4-3.8-8.4-8.4s3.8-8.4,8.4-8.4C281.7,160.6,285.5,164.4,285.5,169"
   id="path16"
   style="fill:#018eca;fill-opacity:1" />
	<path
   d="M383,169c0,4.6-3.8,8.4-8.4,8.4c-4.6,0-8.4-3.8-8.4-8.4s3.8-8.4,8.4-8.4C379.2,160.6,383,164.4,383,169"
   id="path18"
   style="fill:#018eca;fill-opacity:1" />
	<path
   d="M431.7,169c0,4.6-3.8,8.4-8.4,8.4c-4.6,0-8.4-3.8-8.4-8.4s3.8-8.4,8.4-8.4C428,160.6,431.7,164.4,431.7,169"
   id="path20"
   style="fill:#018eca;fill-opacity:1" />
	<path
   d="M358.6,205.6c0,4.6-3.8,8.4-8.4,8.4c-4.6,0-8.4-3.8-8.4-8.4c0-4.6,3.8-8.4,8.4-8.4C354.8,197.2,358.6,201,358.6,205.6"
   id="path22"
   style="fill:#018eca;fill-opacity:1" />
	<path
   d="M407.4,205.6c0,4.6-3.8,8.4-8.4,8.4c-4.6,0-8.4-3.8-8.4-8.4c0-4.6,3.8-8.4,8.4-8.4C403.6,197.2,407.4,201,407.4,205.6"
   id="path24"
   style="fill:#018eca;fill-opacity:1" />
	<path
   d="M163.5,132.4c0,4.6-3.8,8.4-8.4,8.4s-8.4-3.8-8.4-8.4c0-4.6,3.8-8.4,8.4-8.4S163.5,127.7,163.5,132.4"
   id="path26"
   style="fill:#018eca;fill-opacity:1" />
	<path
   d="M212.3,132.4c0,4.6-3.8,8.4-8.4,8.4c-4.6,0-8.4-3.8-8.4-8.4c0-4.6,3.8-8.4,8.4-8.4C208.6,124,212.3,127.7,212.3,132.4"
   id="path28"
   style="fill:#018eca;fill-opacity:1" />
	<path
   d="M261,132.4c0,4.6-3.8,8.4-8.4,8.4s-8.4-3.8-8.4-8.4c0-4.6,3.8-8.4,8.4-8.4C257.3,124,261,127.7,261,132.4"
   id="path30"
   style="fill:#018eca;fill-opacity:1" />
	<path
   d="M261,205.6c0,4.6-3.8,8.4-8.4,8.4s-8.4-3.8-8.4-8.4c0-4.6,3.8-8.4,8.4-8.4C257.3,197.2,261,201,261,205.6"
   id="path32"
   style="fill:#018eca;fill-opacity:1" />
	<path
   d="M309.8,132.4c0,4.6-3.8,8.4-8.4,8.4c-4.6,0-8.4-3.8-8.4-8.4c0-4.6,3.8-8.4,8.4-8.4C306.1,124,309.8,127.7,309.8,132.4"
   id="path34"
   style="fill:#018eca;fill-opacity:1" />
	<path
   d="M358.6,132.4c0,4.6-3.8,8.4-8.4,8.4c-4.6,0-8.4-3.8-8.4-8.4c0-4.6,3.8-8.4,8.4-8.4C354.8,124,358.6,127.7,358.6,132.4"
   id="path36"
   style="fill:#018eca;fill-opacity:1" />
	<path
   d="M358.6,59.1c0,4.6-3.8,8.4-8.4,8.4c-4.6,0-8.4-3.8-8.4-8.4c0-4.6,3.8-8.4,8.4-8.4C354.8,50.7,358.6,54.5,358.6,59.1"
   id="path38"
   style="fill:#018eca;fill-opacity:1" />
	<path
   d="M407.4,132.4c0,4.6-3.8,8.4-8.4,8.4c-4.6,0-8.4-3.8-8.4-8.4c0-4.6,3.8-8.4,8.4-8.4C403.6,124,407.4,127.7,407.4,132.4"
   id="path40"
   style="fill:#018eca;fill-opacity:1" />
	<path
   d="M41.6,95.8c0,4.6-3.8,8.4-8.4,8.4c-4.6,0-8.4-3.8-8.4-8.4c0-4.6,3.8-8.4,8.4-8.4C37.9,87.3,41.6,91.1,41.6,95.8"
   id="path42"
   style="fill:#018eca;fill-opacity:1" />
	<path
   d="M228.3,30.8c3.4,0,6.5-2,7.8-5.2c1.3-3.1,0.6-6.8-1.8-9.2c-2.4-2.4-6-3.1-9.2-1.8c-3.1,1.3-5.2,4.4-5.2,7.8   C219.9,27.1,223.6,30.8,228.3,30.8z"
   id="path44"
   style="fill:#018eca;fill-opacity:1" />
	<path
   d="M114.8,59.1c0,4.6-3.8,8.4-8.4,8.4c-4.6,0-8.4-3.8-8.4-8.4c0-4.6,3.8-8.4,8.4-8.4C111,50.7,114.8,54.5,114.8,59.1"
   id="path46"
   style="fill:#018eca;fill-opacity:1" />
	<path
   d="M163.5,59.1c0,4.6-3.8,8.4-8.4,8.4s-8.4-3.8-8.4-8.4c0-4.6,3.8-8.4,8.4-8.4S163.5,54.5,163.5,59.1"
   id="path48"
   style="fill:#018eca;fill-opacity:1" />
	<path
   d="M212.3,59.1c0,4.6-3.8,8.4-8.4,8.4c-4.6,0-8.4-3.8-8.4-8.4c0-4.6,3.8-8.4,8.4-8.4C208.6,50.7,212.3,54.5,212.3,59.1"
   id="path50"
   style="fill:#018eca;fill-opacity:1" />
	<path
   d="M309.8,59.1c0,4.6-3.8,8.4-8.4,8.4c-4.6,0-8.4-3.8-8.4-8.4c0-4.6,3.8-8.4,8.4-8.4C306.1,50.7,309.8,54.5,309.8,59.1"
   id="path52"
   style="fill:#018eca;fill-opacity:1" />
	<path
   d="M407.4,59.1c0,4.6-3.8,8.4-8.4,8.4c-4.6,0-8.4-3.8-8.4-8.4c0-4.6,3.8-8.4,8.4-8.4C403.6,50.7,407.4,54.5,407.4,59.1"
   id="path54"
   style="fill:#018eca;fill-opacity:1" />
	<path
   d="M90.4,95.8c0,4.6-3.8,8.4-8.4,8.4c-4.6,0-8.4-3.8-8.4-8.4c0-4.6,3.8-8.4,8.4-8.4C86.6,87.3,90.4,91.1,90.4,95.8"
   id="path56"
   style="fill:#018eca;fill-opacity:1" />
	<path
   d="M139.6,95.8c0,4.6-3.8,8.4-8.4,8.4c-4.6,0-8.4-3.8-8.4-8.4c0-4.6,3.8-8.4,8.4-8.4C135.9,87.3,139.6,91.1,139.6,95.8"
   id="path58"
   style="fill:#018eca;fill-opacity:1" />
	<path
   d="M139.6,22.4c0,4.6-3.8,8.4-8.4,8.4c-4.6,0-8.4-3.8-8.4-8.4c0-4.6,3.8-8.4,8.4-8.4C135.9,14,139.6,17.8,139.6,22.4"
   id="path60"
   style="fill:#018eca;fill-opacity:1" />
	<path
   d="M187.9,95.8c0,4.6-3.8,8.4-8.4,8.4s-8.4-3.8-8.4-8.4c0-4.6,3.8-8.4,8.4-8.4S187.9,91.1,187.9,95.8"
   id="path62"
   style="fill:#018eca;fill-opacity:1" />
	<path
   d="M187.9,22.4c0,4.6-3.8,8.4-8.4,8.4s-8.4-3.8-8.4-8.4c0-4.6,3.8-8.4,8.4-8.4S187.9,17.8,187.9,22.4"
   id="path64"
   style="fill:#018eca;fill-opacity:1" />
	<path
   d="M236.2,95.8c0,4.6-3.8,8.4-8.4,8.4s-8.4-3.8-8.4-8.4c0-4.6,3.8-8.4,8.4-8.4S236.2,91.1,236.2,95.8"
   id="path66"
   style="fill:#018eca;fill-opacity:1" />
	<path
   d="M284.5,95.8c0,4.6-3.8,8.4-8.4,8.4c-4.6,0-8.4-3.8-8.4-8.4c0-4.6,3.8-8.4,8.4-8.4C280.7,87.3,284.5,91.1,284.5,95.8"
   id="path68"
   style="fill:#018eca;fill-opacity:1" />
	<path
   d="M332.8,95.8c0,4.6-3.8,8.4-8.4,8.4c-4.6,0-8.4-3.8-8.4-8.4c0-4.6,3.8-8.4,8.4-8.4C329.1,87.3,332.8,91.1,332.8,95.8"
   id="path70"
   style="fill:#018eca;fill-opacity:1" />
	<path
   d="M381.1,95.8c0,4.6-3.8,8.4-8.4,8.4c-4.6,0-8.4-3.8-8.4-8.4c0-4.6,3.8-8.4,8.4-8.4C377.3,87.3,381.1,91.1,381.1,95.8"
   id="path72"
   style="fill:#018eca;fill-opacity:1" />
	<path
   d="M381.1,22.4c0,4.6-3.8,8.4-8.4,8.4c-4.6,0-8.4-3.8-8.4-8.4c0-4.6,3.8-8.4,8.4-8.4C377.3,14,381.1,17.8,381.1,22.4"
   id="path74"
   style="fill:#018eca;fill-opacity:1" />
	<path
   d="M429.4,95.8c0,4.6-3.8,8.4-8.4,8.4c-4.6,0-8.4-3.8-8.4-8.4c0-4.6,3.8-8.4,8.4-8.4C425.7,87.3,429.4,91.1,429.4,95.8"
   id="path76"
   style="fill:#018eca;fill-opacity:1" />
	<path
   d="M114.8,132.4c0,4.6-3.8,8.4-8.4,8.4c-4.6,0-8.4-3.8-8.4-8.4c0-4.6,3.8-8.4,8.4-8.4C111,124,114.8,127.7,114.8,132.4"
   id="path78"
   style="fill:#018eca;fill-opacity:1" />
	<path
   d="M66,205.6c0,4.6-3.8,8.4-8.4,8.4c-4.6,0-8.4-3.8-8.4-8.4c0-4.6,3.8-8.4,8.4-8.4C62.2,197.2,66,201,66,205.6"
   id="path80"
   style="fill:#018eca;fill-opacity:1" />
	<path
   d="M163.5,205.6c0,4.6-3.8,8.4-8.4,8.4s-8.4-3.8-8.4-8.4c0-4.6,3.8-8.4,8.4-8.4S163.5,201,163.5,205.6"
   id="path82"
   style="fill:#018eca;fill-opacity:1" />
	<path
   d="M114.8,205.6c0,4.6-3.8,8.4-8.4,8.4c-4.6,0-8.4-3.8-8.4-8.4c0-4.6,3.8-8.4,8.4-8.4C111,197.2,114.8,201,114.8,205.6"
   id="path84"
   style="fill:#018eca;fill-opacity:1" />
</g>
</svg>
