<?xml version="1.0" encoding="utf-8"?>
<!-- Generator: Adobe Illustrator 25.0.1, SVG Export Plug-In . SVG Version: 6.00 Build 0)  -->
<svg version="1.1" id="Layer_1" xmlns="http://www.w3.org/2000/svg" xmlns:xlink="http://www.w3.org/1999/xlink" x="0px" y="0px"
	 viewBox="0 0 1200 1200" style="enable-background:new 0 0 1200 1200;" xml:space="preserve">
<style type="text/css">
	.st0{fill:#018ECA;}
</style>
<g>
	<path class="st0" d="M460.9,973.8c0,67.2-54.5,121.8-121.9,121.8c-67.3,0-121.8-54.6-121.8-121.8c0-48.5,28.6-90.1,69.6-109.7
		V573.7h104.4v290.5C432.3,883.8,460.9,925.3,460.9,973.8L460.9,973.8z"/>
	<path class="st0" d="M634.8,312.7h452.3v69.6H634.8L634.8,312.7z"/>
	<path class="st0" d="M460.9,783.8v-662v-0.4C460.5,54.3,406,0,339.1,0C272,0,217.5,54.3,217.2,121.3v662.4
		c-64.5,41.5-104.4,113.4-104.4,190.1c0,124.6,101.5,226.2,226.2,226.2c124.8,0,226.2-101.6,226.2-226.2
		C565.1,897.2,525.3,825.2,460.9,783.8L460.9,783.8z M339,1165.2c-105.5,0-191.4-85.8-191.4-191.3c0-67.7,36.7-131,95.8-165.3l8.6-5
		V121.7c0-48,39.1-86.9,87.1-86.9c48,0,86.9,39,86.9,86.9v681.8l8.7,5c59.1,34.2,95.9,97.7,95.9,165.3
		C530.5,1079.4,444.5,1165.2,339,1165.2L339,1165.2z"/>
</g>
</svg>
