<?xml version="1.0" encoding="utf-8"?>
<!-- Generator: Adobe Illustrator 25.0.1, SVG Export Plug-In . SVG Version: 6.00 Build 0)  -->
<svg version="1.1" id="Layer_1" xmlns="http://www.w3.org/2000/svg" xmlns:xlink="http://www.w3.org/1999/xlink" x="0px" y="0px"
	 viewBox="0 0 1200 1200" style="enable-background:new 0 0 1200 1200;" xml:space="preserve">
<style type="text/css">
	.st0{fill:#018ECA;}
</style>
<g>
	<path class="st0" d="M1150,1050c-40.7-0.8-80.7,10-115.5,31c-20.5,12.4-43.9,19-67.9,19s-47.4-6.6-67.9-19
		c-34.8-21-74.8-31.8-115.5-31c-40.7-0.8-80.9,10-115.8,31c-20,13.2-43.6,19.8-67.5,19c-24,0.8-47.7-5.8-67.8-19
		c-34.9-21-75-31.7-115.8-31c-40.7-0.8-80.7,10-115.5,31c-20.1,13.1-43.8,19.8-67.8,19c-24,0.8-47.6-5.9-67.8-19
		c-34.8-21-74.8-31.8-115.5-31c-17.9,0-34.4,9.5-43.3,25c-8.9,15.5-8.9,34.5,0,50c8.9,15.5,25.4,25,43.3,25c24-0.8,47.6,5.9,67.8,19
		c34.8,21,74.8,31.8,115.5,31c40.7,0.8,80.7-10,115.5-31c20.1-13.1,43.8-19.8,67.7-19c24-0.8,47.7,5.8,67.8,19
		c34.9,21,75,31.8,115.8,31c40.7,0.8,80.7-10,115.5-31c20.4-12.4,43.9-19,67.8-19s47.3,6.6,67.8,19c35.2,20.3,75,31,115.6,31
		s80.5-10.7,115.6-31c20.1-13.2,43.8-19.8,67.8-19c17.9,0,34.4-9.5,43.3-25c8.9-15.5,8.9-34.5,0-50
		C1184.4,1059.5,1167.9,1050,1150,1050L1150,1050z"/>
	<path class="st0" d="M1150,850c-40.7-0.8-80.7,10-115.5,31c-20.5,12.4-43.9,19-67.9,19s-47.4-6.6-67.9-19
		c-34.8-21-74.8-31.8-115.5-31c-40.7-0.8-80.9,10-115.8,31c-20,13.2-43.6,19.8-67.5,19c-24,0.8-47.7-5.8-67.8-19
		c-34.9-21-75-31.7-115.8-31c-40.7-0.8-80.7,10-115.5,31c-20.1,13.1-43.8,19.8-67.8,19c-24,0.8-47.6-5.9-67.8-19
		c-34.8-21-74.8-31.8-115.5-31c-17.9,0-34.4,9.5-43.3,25c-8.9,15.5-8.9,34.5,0,50c8.9,15.5,25.4,25,43.3,25c24-0.8,47.6,5.9,67.8,19
		c34.8,21,74.8,31.8,115.5,31c40.7,0.8,80.7-10,115.5-31c20.1-13.1,43.8-19.8,67.7-19c24-0.8,47.7,5.8,67.8,19
		c34.9,21,75,31.8,115.8,31c40.7,0.8,80.7-10,115.5-31c20.4-12.4,43.9-19,67.8-19s47.3,6.6,67.8,19c35.2,20.3,75,31,115.6,31
		s80.5-10.7,115.6-31c20.1-13.2,43.8-19.8,67.8-19c17.9,0,34.4-9.5,43.3-25c8.9-15.5,8.9-34.5,0-50
		C1184.4,859.5,1167.9,850,1150,850L1150,850z"/>
	<path class="st0" d="M200,550h712.5c42.8-0.1,84.2-14.7,117.6-41.5c33.3-26.8,56.5-64.2,65.7-106c2.8-13.1,4.2-26.6,4.2-40
		c0-49.7-19.8-97.4-54.9-132.6S962.2,175,912.5,175c-23.2,0-46.2,4.3-67.8,12.8l-0.1,0c-12.2-57.2-45.1-107.9-92.4-142.3
		C705,11.1,646.7-4.7,588.5,1.2c-58.2,5.9-112.1,33.1-151.5,76.4c-39.4,43.2-61.4,99.5-61.8,158c-38.6-17-83.2-13.4-118.6,9.7
		c-35.3,23.1-56.6,62.5-56.5,104.7c-35.7,0-68.7,19.1-86.6,50c-17.9,30.9-17.9,69.1,0,100S164.3,550,200,550L200,550z"/>
	<path class="st0" d="M274.7,613l-86.6,86.6c-11.1,11.2-15.5,27.4-11.4,42.7c4.1,15.2,16,27.1,31.2,31.2
		c15.2,4.1,31.5-0.2,42.7-11.4l86.6-86.6v0c11.1-11.2,15.5-27.4,11.4-42.7c-4.1-15.2-16-27.1-31.2-31.2
		C302.1,597.5,285.9,601.8,274.7,613L274.7,613z"/>
	<path class="st0" d="M574.6,613L488,699.6v0c-11.1,11.2-15.5,27.4-11.4,42.7c4.1,15.2,16,27.1,31.2,31.2
		c15.2,4.1,31.5-0.2,42.7-11.4l86.6-86.6v0c11.1-11.2,15.5-27.4,11.4-42.7c-4.1-15.2-16-27.1-31.2-31.2
		C602.1,597.5,585.8,601.8,574.6,613L574.6,613z"/>
	<path class="st0" d="M874.5,613l-86.6,86.6v0c-11.1,11.2-15.5,27.4-11.4,42.7c4.1,15.2,16,27.1,31.2,31.2
		c15.2,4.1,31.5-0.2,42.7-11.4l86.6-86.6v0c11.1-11.2,15.5-27.4,11.4-42.7c-4.1-15.2-16-27.1-31.2-31.2
		C902,597.5,885.7,601.8,874.5,613z"/>
</g>
</svg>
