<?xml version="1.0" encoding="utf-8"?>
<!-- Generator: Adobe Illustrator 25.0.1, SVG Export Plug-In . SVG Version: 6.00 Build 0)  -->
<svg version="1.1" id="Layer_1" xmlns="http://www.w3.org/2000/svg" xmlns:xlink="http://www.w3.org/1999/xlink" x="0px" y="0px"
	 viewBox="0 0 1200 1200" style="enable-background:new 0 0 1200 1200;" xml:space="preserve">
<style type="text/css">
	.st0{fill:#018ECA;}
</style>
<g>
	<path class="st0" d="M575,162.5c0-58.1-31-111.7-81.2-140.7c-50.3-29-112.2-29-162.5,0C281,50.8,250,104.4,250,162.5v626.9
		c-38.4,36.1-63.8,83.9-72,136c-8.2,52.1,1.1,105.4,26.4,151.6c25.4,46.2,65.4,82.6,113.8,103.5c48.4,20.9,102.3,25.2,153.4,12.1
		c51-13.1,96.3-42.8,128.6-84.5c32.3-41.6,49.8-92.9,49.8-145.5c0.1-32.5-6.6-64.6-19.5-94.3c-12.9-29.8-31.8-56.6-55.5-78.7
		L575,162.5z M412.5,1125c-45.2,0-88.3-18.8-119-51.8c-30.8-33.1-46.3-77.5-43-122.5c3.3-45,25.3-86.7,60.5-114.9l14-11.3v-662
		c0-31.3,16.7-60.1,43.8-75.8s60.4-15.6,87.5,0s43.8,44.5,43.8,75.8v662l14,11.3c35.3,28.2,57.2,69.8,60.5,114.9
		c3.3,45-12.3,89.4-43,122.5C500.8,1106.2,457.7,1125,412.5,1125z"/>
	<path class="st0" d="M450,869.9V212.5c0-13.4-7.1-25.8-18.8-32.5c-11.6-6.7-25.9-6.7-37.5,0S375,199.1,375,212.5v657.4
		c-28.9,11.7-50.7,36.2-58.9,66.3s-2,62.3,16.9,87.1c18.9,24.8,48.3,39.3,79.5,39.3s60.6-14.5,79.5-39.3
		c18.9-24.8,25.2-57,16.9-87.1S478.9,881.6,450,869.9L450,869.9z"/>
	<path class="st0" d="M987.5,250H875V137.5c0-13.4-7.1-25.8-18.8-32.5c-11.6-6.7-25.9-6.7-37.5,0c-11.6,6.7-18.8,19.1-18.8,32.5V250
		H687.5c-13.4,0-25.8,7.1-32.5,18.8c-6.7,11.6-6.7,25.9,0,37.5c6.7,11.6,19.1,18.8,32.5,18.8H800v112.5c0,13.4,7.1,25.8,18.8,32.5
		c11.6,6.7,25.9,6.7,37.5,0s18.8-19.1,18.8-32.5V325h112.5c13.4,0,25.8-7.1,32.5-18.8c6.7-11.6,6.7-25.9,0-37.5
		C1013.3,257.1,1000.9,250,987.5,250z"/>
</g>
</svg>
