<?xml version="1.0" encoding="utf-8"?>
<!-- Generator: Adobe Illustrator 25.0.1, SVG Export Plug-In . SVG Version: 6.00 Build 0)  -->
<svg version="1.1" id="Layer_1" xmlns="http://www.w3.org/2000/svg" xmlns:xlink="http://www.w3.org/1999/xlink" x="0px" y="0px"
	 viewBox="0 0 1200 1200" style="enable-background:new 0 0 1200 1200;" xml:space="preserve">
<style type="text/css">
	.st0{fill:#018ECA;}
	.st1{fill:#FFFFFF;}
</style>
<path class="st0" d="M883.5,307.9L441.7,473.5c-9.3,3.5-9.8,16.5-0.7,20.7l41.2,18.7L344.6,815.5c-3.8,8.3-0.1,18.1,8.2,21.9
	l240.9,109.5l4.6,2.1l236.3,107.5c8.3,3.8,18.1,0.1,21.9-8.2l137.6-302.6l41.2,18.7c9.1,4.1,18.6-4.8,15.1-14.1L886.4,312.4
	l-1.8-4.7L883.5,307.9z"/>
<path class="st0" d="M968.8,1159.5c-0.2-0.8-0.5-1.6-0.6-2.2c-0.2-1.2-0.7-2.3-1.4-3.3c-22.2-29.1-80.9-70.9-93.6-87.6
	c-2.9-3.8-5.8-7.5-9.1-11c-22.6-23.7-33.8-61.6-55.2-86.9c-13.6-16-24.8-33.8-33.1-53.1c-3.1-7.3-6.8-14.7-12.5-23
	c-8.4-12.1-20.8-31.4-33-50c-16-24.4-37.1-45.1-61.9-60.6l-1.6-1c-40.4-25.4-83.7-45.6-128.9-61c-32.7-11.2-77.8-32.7-131.4-78.7
	c-31.6-27.2-50.6-66.2-52.7-107.9l0,0c-0.7-13.9-5.6-27.2-13.9-38.3c-18.1-24.2-41.6-58.6-45.9-71.5c-26.4-79-18.4-146.6-22.3-238.9
	c-0.7-16.9-0.8-32.6-2.1-47.1c-3.5-38.5-31.3-70.3-68.9-79.3l0,0c-0.8-0.6-43.9-9-44.9-9.2l-34.4-6.6c-21.9-4.9-65.3-5.9-82.9-6.1
	c-4.2-0.1-7.6,3.3-7.6,7.5v1112.5c0,4.2,3.4,7.5,7.5,7.5H972l0,0C970.5,1162.8,969.3,1161.3,968.8,1159.5z"/>
<path class="st1" d="M816.5,888l-78-40.6c-11.5-6-16-20.2-10-31.8l47-90.4c6-11.5,20.2-16,31.8-10l78,40.6c11.5,6,16,20.2,10,31.8
	l-47,90.4C842.3,889.5,828.1,894,816.5,888z"/>
<path class="st1" d="M611.4,750.1l42.2-81.3c7.6-14.5,1.9-32.5-12.6-40l-67.2-34.9c-14.5-7.6-32.5-1.9-40,12.6l-44.2,85
	c0,0,0,0,0,0.1c-1.6,3.1-0.1,6.9,3.1,8.3l116.2,49.5c0.3,0.1,0.6,0.2,0.9,0.3L611.4,750.1"/>
<path class="st0" d="M611.4,750.1"/>
</svg>
