<?xml version="1.0" encoding="utf-8"?>
<!-- Generator: Adobe Illustrator 25.0.1, SVG Export Plug-In . SVG Version: 6.00 Build 0)  -->
<svg version="1.1" id="Layer_1" xmlns="http://www.w3.org/2000/svg" xmlns:xlink="http://www.w3.org/1999/xlink" x="0px" y="0px"
	 viewBox="0 0 1200 1200" style="enable-background:new 0 0 1200 1200;" xml:space="preserve">
<style type="text/css">
	.st0{fill:#EF7D00;}
</style>
<g>
	<path class="st0" d="M725,600c0,69-56,125-125,125s-125-56-125-125s56-125,125-125S725,531,725,600"/>
	<path class="st0" d="M600,400c19.9,0,39-7.9,53-22c14.1-14.1,22-33.1,22-53V75c-0.1-26.8-14.4-51.5-37.5-64.8
		c-23.2-13.4-51.7-13.4-74.9,0C539.4,23.5,525.1,48.2,525,75v250c0,19.9,7.9,39,22,53C561,392.1,580.1,400,600,400L600,400z"/>
	<path class="st0" d="M452.7,452.7C467,438.5,475,419.2,475,399s-8-39.5-22.3-53.7l-323-323C110.6,3.1,82.6-4.4,56.3,2.6
		C30.1,9.6,9.6,30.1,2.6,56.3c-7,26.2,0.5,54.2,19.7,73.4l323,323C359.5,467,378.8,475,399,475C419.2,475,438.5,467,452.7,452.7z"/>
	<path class="st0" d="M174.7,525h150.6c41.2,0,74.7,41.2,74.7,74.7v0.6c0,41.2-33.4,74.7-74.7,74.7H174.7
		c-41.2,0-74.7-41.2-74.7-74.7v-0.6C100,558.4,133.4,525,174.7,525z"/>
	<path class="st0" d="M352.1,746.1l-231,231c-18.2,18.2-25.3,44.7-18.6,69.6c6.7,24.8,26.1,44.3,50.9,50.9
		c24.8,6.7,51.4-0.4,69.6-18.6l231-231c18.2-18.2,25.3-44.7,18.6-69.6c-6.7-24.8-26.1-44.3-50.9-50.9
		C396.8,720.8,370.3,727.9,352.1,746.1L352.1,746.1z"/>
	<path class="st0" d="M599.7,800c-19.9,0-39,7.9-53,22c-14.1,14.1-22,33.1-22,53v250c0,26.8,14.3,51.6,37.5,65
		c23.2,13.4,51.8,13.4,75,0c23.2-13.4,37.5-38.2,37.5-65V875c0-19.9-7.9-39-22-53C638.7,807.9,619.6,800,599.7,800L599.7,800z"/>
	<path class="st0" d="M849,747.1c-18.2-18.2-44.7-25.3-69.5-18.6c-24.8,6.7-44.3,26.1-50.9,50.9c-6.7,24.8,0.4,51.4,18.6,69.6
		L876,977.9v0c18.2,18.2,44.7,25.3,69.6,18.6c24.8-6.7,44.3-26.1,50.9-50.9s-0.4-51.4-18.6-69.6L849,747.1z"/>
	<path class="st0" d="M1120.2,525H879.8c-20.5-0.6-40.4,6.9-55.4,20.9c-15,14-23.7,33.4-24.4,53.9v0c0.7,20.5,9.5,39.9,24.4,53.9
		c15,14,34.9,21.5,55.4,20.9h240.4c20.5,0.6,40.4-6.9,55.4-20.9c15-14,23.7-33.4,24.4-53.9v0c-0.7-20.5-9.5-39.9-24.4-53.9
		C1160.6,531.9,1140.7,524.4,1120.2,525L1120.2,525z"/>
	<path class="st0" d="M845.7,453.9l83.2-81c18.2-18.2,25.3-44.7,18.6-69.6c-6.7-24.8-26.1-44.3-50.9-50.9
		c-24.8-6.7-51.4,0.4-69.6,18.6l-81,81C732.6,365.6,725,383.9,725,403s7.6,37.4,21.1,50.9c13.1,13.5,31,21.1,49.8,21.1
		C814.7,475,832.6,467.4,845.7,453.9L845.7,453.9z"/>
</g>
</svg>
