<?xml version="1.0" encoding="utf-8"?>
<!-- Generator: Adobe Illustrator 25.0.1, SVG Export Plug-In . SVG Version: 6.00 Build 0)  -->
<svg version="1.1" id="Layer_1" xmlns="http://www.w3.org/2000/svg" xmlns:xlink="http://www.w3.org/1999/xlink" x="0px" y="0px"
	 viewBox="0 0 1200 1200" style="enable-background:new 0 0 1200 1200;" xml:space="preserve">
<style type="text/css">
	.st0{fill:#018ECA;}
</style>
<g>
	<path class="st0" d="M599,163.5c-7.5-15.6-20.6-27.7-36.6-34c-16.1-6.3-33.9-6.3-50,0c-16.1,6.3-29.1,18.4-36.6,34L1.2,1156.9
		c-1.8,3.9-1.6,8.4,0.7,12.1c2.3,3.6,6.3,5.8,10.6,5.8h1049.7c4.3,0,8.3-2.2,10.6-5.8c2.3-3.6,2.6-8.2,0.7-12.1L599,163.5z"/>
	<path class="st0" d="M1190.3,594.1c-11.3-26.9-32.8-48.2-59.9-59.2c-27.8-11.4-59-11.3-86.7,0.2c-9.1,3.7-16.4,11-20.2,20.1
		c-3.8,9.1-3.8,19.4,0,28.5c3.9,9.1,11.2,16.3,20.4,20.1c9.2,3.7,19.5,3.7,28.6-0.1c9.3-3.9,19.9-4,29.3-0.2
		c8.7,3.5,15.6,10.3,19.3,18.9c5.4,13.6,5.1,28.8-0.8,42.3c-5.9,13.4-16.8,24-30.5,29.3c-19.8,8.3-42,8.4-61.9,0.3
		c-19.3-7.9-34.6-23.3-42.3-42.6L815,296.1c-4.3-8.9-12-15.8-21.4-19.1c-9.3-3.3-19.6-2.8-28.6,1.4c-9,4.2-15.9,11.7-19.2,21
		c-3.3,9.3-2.8,19.5,1.4,28.5l169.8,354c15.4,36.9,45,66.2,82.2,81.1c18.8,7.7,38.8,11.7,59.1,11.7c20.7,0,41.1-4.1,60.2-12
		c31.9-12.8,57.4-37.8,70.9-69.4C1202.9,661.7,1203.2,626,1190.3,594.1L1190.3,594.1z"/>
	<path class="st0" d="M761.8,165.7l50,30.5c3.9,2.4,8.4,3.7,13,3.7c4.6,0,9.1-1.3,13-3.7l50-30.5c7.4-4.5,12-12.6,12-21.3V80.8
		c0-8.7-4.5-16.8-12-21.3l-50-30.5c-3.9-2.4-8.4-3.7-13-3.7c-4.6,0-9.1,1.3-13,3.7l-50,30.5c-7.4,4.5-12,12.6-12,21.3v63.6
		C749.9,153.1,754.4,161.2,761.8,165.7z"/>
	<path class="st0" d="M903.2,299.9l50.1,87.5c2.2,3.8,5.3,7,9.2,9.2c3.8,2.2,8.1,3.4,12.5,3.4h100c4.4,0,8.7-1.2,12.5-3.4
		c3.8-2.2,7-5.4,9.2-9.2l50.1-87.5h0c4.4-7.7,4.4-17.2,0-24.9l-50.1-87.5h0c-2.2-3.8-5.3-7-9.2-9.2c-3.8-2.2-8.1-3.4-12.5-3.4H975
		c-4.4,0-8.7,1.2-12.5,3.4c-3.8,2.2-7,5.4-9.2,9.2L903.2,275C898.7,282.7,898.7,292.2,903.2,299.9L903.2,299.9z"/>
</g>
</svg>
