<?xml version="1.0" encoding="utf-8"?>
<!-- Generator: Adobe Illustrator 25.0.1, SVG Export Plug-In . SVG Version: 6.00 Build 0)  -->
<svg version="1.1" id="Layer_1" xmlns="http://www.w3.org/2000/svg" xmlns:xlink="http://www.w3.org/1999/xlink" x="0px" y="0px"
	 viewBox="0 0 1200 1200" style="enable-background:new 0 0 1200 1200;" xml:space="preserve">
<style type="text/css">
	.st0{fill:#018ECA;}
</style>
<path class="st0" d="M1089.2,451L617.2,6.8C612.5,2.4,606.3,0,599.9,0s-12.6,2.4-17.2,6.8L110.7,451c-6.9,6.3-10.8,15.2-10.8,24.5
	V1175c0,6.6,2.7,13,7.3,17.7s11,7.3,17.7,7.3h329.5l222.8-223L466.4,787.2c-10.7-9.6-16.7-23.4-16.5-37.8
	c0.2-14.4,6.6-28.1,17.5-37.5l134-114.8l-86.8-87c-9.5-9.3-14.8-22-14.8-35.2s5.3-26,14.8-35.2l100-100
	c12.6-12.6,30.9-17.5,48.2-12.9s30.6,18,35.2,35.2s-0.3,35.6-12.9,48.2L620.7,475l89.5,89.8c10,9.8,15.3,23.3,14.8,37.2
	c-0.6,13.9-6.9,26.9-17.5,36L575.7,751l207.8,186.8c10.2,9.2,16.2,22.2,16.5,35.9c0.3,13.7-5,27-14.7,36.6L595.4,1200h479.5
	c6.6,0,13-2.7,17.7-7.3s7.3-11,7.3-17.7V475.5C1100,466.2,1096.1,457.3,1089.2,451L1089.2,451z"/>
</svg>
