<?xml version="1.0" encoding="utf-8"?>
<!-- Generator: Adobe Illustrator 25.0.1, SVG Export Plug-In . SVG Version: 6.00 Build 0)  -->
<svg version="1.1" id="Layer_1" xmlns="http://www.w3.org/2000/svg" xmlns:xlink="http://www.w3.org/1999/xlink" x="0px" y="0px"
	 viewBox="0 0 1200 1200" style="enable-background:new 0 0 1200 1200;" xml:space="preserve">
<style type="text/css">
	.st0{fill:#018ECA;}
</style>
<g>
	<path class="st0" d="M1195.5,300L829,1.5c-2.3-2-5.7-2-8,0L454.5,300c-2.8,2.4-4.4,5.8-4.5,9.5v442.8c29.1,4,57,13.7,82.2,28.8
		c20.1,13.2,43.7,19.8,67.8,19c23.9,0.8,47.5-5.8,67.5-19c34.9-21,75-31.8,115.8-31c40.7-0.8,80.7,10,115.5,31
		c20.5,12.4,43.9,19,67.9,19s47.4-6.6,67.9-19c34.8-21,74.8-31.8,115.5-31c16.8-0.1,33.6,1.6,50,5V309.5
		C1199.9,305.8,1198.3,302.4,1195.5,300L1195.5,300z"/>
	<path class="st0" d="M1150,1050c-40.7-0.8-80.7,10-115.5,31c-20.5,12.4-43.9,19-67.9,19s-47.4-6.6-67.9-19
		c-34.8-21-74.8-31.8-115.5-31c-40.7-0.8-80.9,10-115.8,31c-20,13.2-43.6,19.8-67.5,19c-24,0.8-47.7-5.8-67.8-19
		c-34.9-21-75-31.7-115.8-31c-40.7-0.8-80.7,10-115.5,31c-20.1,13.1-43.8,19.8-67.8,19c-24,0.8-47.6-5.9-67.8-19
		c-34.8-21-74.8-31.8-115.5-31c-17.9,0-34.4,9.5-43.3,25c-8.9,15.5-8.9,34.5,0,50c8.9,15.5,25.4,25,43.3,25c24-0.8,47.6,5.9,67.8,19
		c34.8,21,74.8,31.8,115.5,31c40.7,0.8,80.7-10,115.5-31c20.1-13.1,43.8-19.8,67.8-19c24-0.8,47.7,5.8,67.8,19
		c34.9,21,75,31.8,115.8,31c40.7,0.8,80.7-10,115.5-31c20.4-12.4,43.9-19,67.8-19s47.3,6.6,67.8,19c35.2,20.3,75,31,115.6,31
		s80.5-10.7,115.6-31c20.1-13.2,43.7-19.8,67.8-19c17.9,0,34.4-9.5,43.3-25c8.9-15.5,8.9-34.5,0-50
		C1184.4,1059.5,1167.9,1050,1150,1050L1150,1050z"/>
	<path class="st0" d="M1150,850c-40.7-0.8-80.8,10-115.6,31.1c-20.4,12.4-43.9,18.9-67.8,18.9c-23.9,0-47.3-6.5-67.8-18.9
		C864,860,823.9,849.2,783.2,850c-40.7-0.8-80.8,10-115.6,31.1c-20.1,13.1-43.7,19.7-67.7,18.9c-24,0.8-47.6-5.8-67.7-18.9
		c-34.8-21.1-74.9-31.9-115.6-31.1c-40.7-0.8-80.8,10-115.6,31.1c-20.1,13.1-43.7,19.7-67.7,18.9c-23.9,0.8-47.6-5.8-67.6-18.9
		C130.8,860,90.7,849.2,50,850c-17.9,0-34.4,9.5-43.3,25c-8.9,15.5-8.9,34.5,0,50c8.9,15.5,25.4,25,43.3,25
		c24-0.8,47.6,5.8,67.7,18.9c34.8,21.1,74.9,31.9,115.5,31.1c40.7,0.8,80.8-10,115.6-31.1c20.1-13.1,43.7-19.7,67.7-18.9
		c24-0.8,47.6,5.8,67.7,18.9c34.8,21.1,74.9,31.9,115.6,31.1c40.7,0.8,80.8-10,115.6-31.1c20.4-12.4,43.9-18.9,67.7-18.9
		c23.9,0,47.3,6.5,67.7,18.9c35.1,20.4,75,31.1,115.6,31.1c40.6,0,80.5-10.7,115.6-31.1c20.1-13.1,43.8-19.7,67.8-18.9
		c17.9,0,34.4-9.5,43.3-25c8.9-15.5,8.9-34.5,0-50C1184.4,859.5,1167.9,850,1150,850L1150,850z"/>
</g>
</svg>
