<?xml version="1.0" encoding="utf-8"?>
<!-- Generator: Adobe Illustrator 25.0.1, SVG Export Plug-In . SVG Version: 6.00 Build 0)  -->
<svg version="1.1" id="Layer_1" xmlns="http://www.w3.org/2000/svg" xmlns:xlink="http://www.w3.org/1999/xlink" x="0px" y="0px"
	 viewBox="0 0 1200 1200" style="enable-background:new 0 0 1200 1200;" xml:space="preserve">
<style type="text/css">
	.st0{fill:#018ECA;}
</style>
<g>
	<path class="st0" d="M610.8,725.1c10.7-11.3,15.3-27.1,12.7-42.4c-3.8-22.8-13.5-60.1-37.6-97.8c-45.3-70.7-14.2-152.6,80.1-120.1
		l0,0c92,31.5,214.1,68.6,240.2-80.1c20.5-115.5,174.7-72.7,240.4-80.2c118.9-13.6,29.2-237.1-120.2-240.3
		C875.1,60.9,806.3,127.3,746,264.5c-28.7,65.9-53.3,115.7-160.1,80.1s-185,52.1-120.1,160.2c40.3,67.1,23.7,138.4,10.2,175.1
		c-9.2,25-0.5,53.4,21.9,67.9c11,7.2,25.2,12,43.3,11C574.1,756.8,597.1,739.6,610.8,725.1z"/>
	<path class="st0" d="M1076,1181L658.5,786c-7.1-7.3-16.6-11.9-26.8-12.9s-20.4,1.5-28.9,7.3c-18.5,13-40.6,20.1-63.2,20.1
		s-44.7-7-63.2-20.1c-8.5-5.7-18.7-8.3-28.9-7.3c-10.2,1-19.7,5.6-26.8,12.9L3.3,1181c-3.2,3.2-4.1,8-2.4,12.1s5.8,6.9,10.3,6.9
		h1057.1c4.5,0,8.5-2.7,10.3-6.9C1080.2,1189,1079.3,1184.2,1076,1181L1076,1181z"/>
</g>
</svg>
