<?xml version="1.0" encoding="UTF-8" standalone="no"?>
<!-- Generator: Adobe Illustrator 25.0.1, SVG Export Plug-In . SVG Version: 6.00 Build 0)  -->

<svg
   version="1.1"
   id="Layer_1"
   x="0px"
   y="0px"
   viewBox="0 0 1200 1200"
   style="enable-background:new 0 0 1200 1200;"
   xml:space="preserve"
   sodipodi:docname="Icon_Wave.svg"
   inkscape:version="1.2.2 (b0a8486541, 2022-12-01)"
   xmlns:inkscape="http://www.inkscape.org/namespaces/inkscape"
   xmlns:sodipodi="http://sodipodi.sourceforge.net/DTD/sodipodi-0.dtd"
   xmlns="http://www.w3.org/2000/svg"
   xmlns:svg="http://www.w3.org/2000/svg"><defs
   id="defs964" /><sodipodi:namedview
   id="namedview962"
   pagecolor="#ffffff"
   bordercolor="#666666"
   borderopacity="1.0"
   inkscape:showpageshadow="2"
   inkscape:pageopacity="0.0"
   inkscape:pagecheckerboard="0"
   inkscape:deskcolor="#d1d1d1"
   showgrid="false"
   inkscape:zoom="0.12727922"
   inkscape:cx="652.10959"
   inkscape:cy="683.53655"
   inkscape:window-width="630"
   inkscape:window-height="1040"
   inkscape:window-x="2564"
   inkscape:window-y="8"
   inkscape:window-maximized="1"
   inkscape:current-layer="Layer_1" />
<style
   type="text/css"
   id="style937">
	.st0{fill:#018ECA;}
</style>
<g
   id="g959">
	<path
   class="st0"
   d="M1137.5,1075H875V498.8c0.6-26.4,11.5-51.6,30.4-70.1c18.9-18.5,44.3-28.8,70.8-28.8c26.2,0,51.3,10.5,69.9,29   s29,43.7,29,69.9c0,0.4,0.1,0.8,0.1,1.1h-0.1v17.2c-14.9,7.1-27.6,18.2-36.4,32.1S1025,579.4,1025,596c0,43.7,71.7,135.9,85.3,153   c0.5,0.7,1.3,1.1,2.2,1.1c0.9,0,1.7-0.4,2.2-1.1c13.6-17.1,85.3-109.2,85.3-153c0-16.5-4.7-32.7-13.6-46.6s-21.5-25.1-36.4-32.1   V500h-0.1c0-0.4,0.1-0.8,0.1-1.1c-0.1-46.1-18.4-90.3-51-122.9s-76.8-50.9-122.9-51c-46.3,0-90.8,18.2-123.8,50.7   c-33,32.5-51.8,76.8-52.4,123.1V625h-62.5c-4.2,0-8.4,0.2-12.5,0.8c-31.9,3.1-61.7,17.2-84.4,39.9c-22.7,22.7-36.8,52.5-39.9,84.4   c-0.5,4.1-0.8,8.3-0.8,12.5v29.7c-14.9,7.1-27.6,18.2-36.4,32.1S550,854.4,550,871c0,43.7,71.7,135.9,85.3,153   c0.5,0.7,1.3,1.1,2.2,1.1c0.9,0,1.7-0.4,2.2-1.1c13.6-17.1,85.3-109.2,85.3-153c0-16.5-4.7-32.7-13.6-46.6s-21.5-25.1-36.4-32.1   v-29.7c0-16.6,6.6-32.5,18.3-44.2s27.6-18.3,44.2-18.3H800v375H62.5c-22.3,0-43,11.9-54.1,31.2c-11.2,19.3-11.2,43.2,0,62.5   c11.2,19.3,31.8,31.2,54.1,31.2h1075c22.3,0,43-11.9,54.1-31.2c11.2-19.3,11.2-43.2,0-62.5C1180.5,1086.9,1159.8,1075,1137.5,1075   L1137.5,1075z"
   id="path939" />
	<path
   class="st0"
   d="M312.5,150c9.9,0,19.5-4,26.5-11s11-16.6,11-26.5v-75c0-13.4-7.1-25.8-18.8-32.5c-11.6-6.7-25.9-6.7-37.5,0   S275,24.1,275,37.5v75c0,9.9,4,19.5,11,26.5S302.6,150,312.5,150z"
   id="path941" />
	<path
   class="st0"
   d="M275,512.5v75c0,13.4,7.1,25.8,18.8,32.5c11.6,6.7,25.9,6.7,37.5,0s18.8-19.1,18.8-32.5v-75   c0-13.4-7.1-25.8-18.8-32.5c-11.6-6.7-25.9-6.7-37.5,0S275,499.1,275,512.5z"
   id="path943" />
	<path
   class="st0"
   d="M480.4,197.6l53-53v0c7.1-7,11.1-16.6,11.1-26.6c0-10-3.9-19.6-11-26.6c-7.1-7.1-16.6-11-26.6-11   c-10,0-19.5,4-26.6,11.1l-53,53c-9.5,9.5-13.2,23.3-9.7,36.2s13.6,23,26.5,26.5S471,207.1,480.4,197.6L480.4,197.6z"
   id="path945" />
	<path
   class="st0"
   d="M144.6,427.4l-53,53c-9.4,9.5-13,23.3-9.5,36.1c3.5,12.9,13.5,22.9,26.4,26.4c12.9,3.5,26.6-0.1,36.1-9.5   l53-53h0c9.5-9.5,13.2-23.3,9.7-36.2s-13.6-23-26.5-26.5S154,417.9,144.6,427.4L144.6,427.4z"
   id="path947" />
	<path
   class="st0"
   d="M475,312.5c0,9.9,4,19.5,11,26.5s16.6,11,26.5,11h75c13.4,0,25.8-7.1,32.5-18.8c6.7-11.6,6.7-25.9,0-37.5   S600.9,275,587.5,275h-75c-9.9,0-19.5,4-26.5,11S475,302.6,475,312.5z"
   id="path949" />
	<path
   class="st0"
   d="M37.5,350h75c13.4,0,25.8-7.1,32.5-18.8c6.7-11.6,6.7-25.9,0-37.5S125.9,275,112.5,275h-75   c-13.4,0-25.8,7.1-32.5,18.8c-6.7,11.6-6.7,25.9,0,37.5S24.1,350,37.5,350z"
   id="path951" />
	<path
   class="st0"
   d="M427.4,427.4c-7,7-11,16.6-11,26.5s3.9,19.5,11,26.5l53,53h0c9.5,9.4,23.3,13,36.1,9.5   c12.9-3.5,22.9-13.5,26.4-26.4c3.5-12.9-0.1-26.6-9.5-36.1l-53-53v0c-7-7-16.6-11-26.5-11S434.4,420.4,427.4,427.4L427.4,427.4z"
   id="path953" />
	<path
   class="st0"
   d="M144.6,197.6c9.5,9.5,23.3,13.2,36.2,9.7s23-13.6,26.5-26.5s-0.2-26.8-9.7-36.2l-53-53   c-9.5-9.4-23.3-13-36.1-9.5C95.5,85.5,85.5,95.5,82,108.4c-3.5,12.9,0.1,26.6,9.5,36.1L144.6,197.6z"
   id="path955" />
	<path
   class="st0"
   d="M425,312.5c0,62.1-50.4,112.5-112.5,112.5S200,374.6,200,312.5S250.4,200,312.5,200S425,250.4,425,312.5"
   id="path957" />
</g>
</svg>
