<?xml version="1.0" encoding="utf-8"?>
<!-- Generator: Adobe Illustrator 26.0.1, SVG Export Plug-In . SVG Version: 6.00 Build 0)  -->
<svg version="1.1" xmlns="http://www.w3.org/2000/svg" xmlns:xlink="http://www.w3.org/1999/xlink" x="0px" y="0px"
	 viewBox="0 0 368.7 78.7" style="enable-background:new 0 0 368.7 78.7;" xml:space="preserve">
<g id="IDMC_logo_300_p_x5F_inch_xA0_Image_1_">
</g>
<g id="Layer_2">
	<g>
		<polygon style="fill:#193256;" points="24,76.9 24,32 17,32 17,21.5 37.1,21.5 37.1,76.9 		"/>
		<path style="fill:#193256;" d="M65.2,76.9H48.3V1.1c10.8-0.4,17.5-0.6,20.3-0.6c11.1,0,19.9,3.2,26.4,9.7
			c6.5,6.5,9.7,15.1,9.7,25.8C104.8,63.3,91.6,76.9,65.2,76.9 M61.9,12.9v51.8c2.2,0.2,4.5,0.3,7.1,0.3c6.8,0,12.1-2.5,16-7.4
			c3.9-4.9,5.8-11.8,5.8-20.7c0-16.2-7.6-24.3-22.7-24.3C66.6,12.5,64.6,12.6,61.9,12.9"/>
		<polygon style="fill:#193256;" points="183,76.9 169.9,76.9 162.1,36 146.7,78.1 141.8,78.1 126.6,36 118.5,76.9 105.4,76.9 
			120.7,1 127.8,1 144.3,52.2 160.4,1 167.5,1 		"/>
		<path style="fill:#193256;" d="M238.7,5.1l-5.5,11.2c-3-3-7.8-4.5-14.5-4.5c-6.3,0-11.5,2.6-15.5,7.9c-4,5.3-6.1,12-6.1,20.1
			c0,8.1,1.9,14.6,5.6,19.3c3.7,4.8,8.7,7.1,15,7.1c7.1,0,12.7-2.6,16.8-7.7l6.3,10.9c-5.5,5.9-13.5,8.8-24.1,8.8
			c-10.6,0-18.8-3.5-24.7-10.5c-5.9-7-8.8-16.5-8.8-28.5c0-11.2,3.3-20.6,9.8-28.2c6.5-7.5,14.8-11.3,25-11.3
			C226.5-0.3,233.5,1.5,238.7,5.1"/>
	</g>
	<path style="fill:#193256;" d="M37.9,8.3c0,4.6-3.8,8.4-8.4,8.4c-4.6,0-8.4-3.7-8.4-8.4c0-4.6,3.7-8.4,8.4-8.4
		C34.2,0,37.9,3.7,37.9,8.3"/>
	<path style="opacity:0.6;fill:#193256;" d="M19.1,16.6c-1.9,0-3.7-0.7-5.2-1.8c2-1.5,3.3-4,3.3-6.7c0-2.7-1.3-5.1-3.2-6.6
		c1.4-1.1,3.1-1.7,5-1.7c2,0,3.9,0.7,5.3,1.9c-1.9,1.5-3.2,3.9-3.2,6.6c0,2.6,1.2,4.9,3.1,6.5C22.8,15.9,21,16.6,19.1,16.6"/>
	<path style="fill:#193256;" d="M24.3,14.8c-1.9-1.5-3.1-3.9-3.1-6.5c0-2.7,1.2-5,3.2-6.6c1.9,1.5,3.1,3.9,3.1,6.5
		C27.5,10.9,26.2,13.3,24.3,14.8"/>
	<path style="opacity:0.4;fill:#193256;" d="M8.9,16.5c-4.6,0-8.4-3.8-8.4-8.4c0-4.6,3.7-8.4,8.4-8.4c2,0,3.7,0.7,5.2,1.8
		c-2,1.5-3.3,4-3.3,6.7c0,2.7,1.3,5,3.2,6.6C12.5,15.9,10.8,16.5,8.9,16.5"/>
	<path style="opacity:0.8;fill:#193256;" d="M13.9,14.8c-1.9-1.5-3.2-3.9-3.2-6.6c0-2.7,1.3-5.1,3.3-6.7c1.9,1.5,3.2,3.9,3.2,6.6
		C17.2,10.9,15.9,13.3,13.9,14.8"/>
	<g>
		<path style="fill:#193256;" d="M260.4,4.9h-1.9V3h1.9V4.9z M258.5,7h1.7v9.3h-1.7V7z"/>
		<path style="fill:#193256;" d="M263.4,7h1.7v1.5h0c0.5-1.1,1.8-1.7,3.1-1.7c2.4,0,3.5,1.5,3.5,4v5.6H270v-4.8c0-2.2-0.5-3.2-2-3.3
			c-2,0-2.8,1.6-2.8,3.9v4.3h-1.7V7z"/>
		<path style="fill:#193256;" d="M279.6,8.4h-2.5v5.1c0,1.1,0.7,1.7,1.4,1.7c0.5,0,0.9-0.2,1.2-0.3v1.5c-0.4,0.1-0.9,0.3-1.5,0.3
			c-1.8,0-2.9-0.8-2.9-2.7V8.4h-2.1V7h2.1V4.9l1.7-0.5V7h2.5V8.4z"/>
		<path style="fill:#193256;" d="M288.9,16c-0.7,0.2-1.4,0.6-2.9,0.6c-3.3,0-4.8-2-4.8-5.1c0-2.8,1.7-4.7,4.4-4.7
			c3.1,0,4.1,2.3,4.1,5.3H283c0,1.9,1.4,3.1,3.1,3.1c1.1,0,2.5-0.6,2.9-0.9V16z M287.8,10.8c0-1.4-0.8-2.6-2.3-2.6
			c-1.7,0-2.4,1.4-2.5,2.6H287.8z"/>
		<path style="fill:#193256;" d="M291.9,7h1.6v1.4h0c0.5-1,1.4-1.7,2.4-1.7c0.5,0,0.8,0.1,1.1,0.1v1.5c-0.3-0.1-0.7-0.2-1-0.2
			c-1.5,0-2.5,1.5-2.5,3.8v4.3h-1.7V7z"/>
		<path style="fill:#193256;" d="M299.1,7h1.7v1.5h0c0.5-1.1,1.8-1.7,3.1-1.7c2.4,0,3.5,1.5,3.5,4v5.6h-1.7v-4.8
			c0-2.2-0.5-3.2-2-3.3c-2,0-2.8,1.6-2.8,3.9v4.3h-1.7V7z"/>
		<path style="fill:#193256;" d="M310.7,7.7c0.9-0.5,1.9-0.9,3.1-0.9c2.7,0,3.8,1.3,3.8,3.9v3.9c0,1.1,0,1.6,0.1,1.8H316v-1.2h0
			c-0.4,0.6-1.3,1.4-2.9,1.4c-2,0-3.4-0.9-3.4-2.9c0-2.3,2.6-3.1,4.3-3.1c0.7,0,1.2,0,1.8,0c0-1.6-0.6-2.4-2.3-2.4c-1,0-2,0.4-2.7,1
			L310.7,7.7z M315.8,11.9c-0.4,0-0.7,0-1.1,0c-0.9,0-3.2,0.1-3.2,1.8c0,1,1,1.5,1.7,1.5c1.7,0,2.6-1.1,2.6-2.5V11.9z"/>
		<rect x="320.7" y="2.6" style="fill:#193256;" width="1.7" height="13.8"/>
		<path style="fill:#193256;" d="M264.9,34.9L264.9,34.9c-0.5,0.7-1.6,1.5-3.2,1.5c-2.8,0-4-2.5-4-5.1c0-2.5,1.3-4.7,4-4.7
			c1.6,0,2.6,0.6,3.1,1.5h0v-5.7h1.7v13.8h-1.7V34.9z M262.1,35.1c1.9,0,2.8-1.9,2.8-3.5c0-1.7-0.9-3.5-2.8-3.5
			c-1.9,0-2.6,1.8-2.6,3.5C259.5,33,260.3,35.1,262.1,35.1"/>
		<path style="fill:#193256;" d="M271.5,24.8h-1.9v-1.9h1.9V24.8z M269.6,26.9h1.7v9.3h-1.7V26.9z"/>
		<path style="fill:#193256;" d="M273.7,34.4c0.7,0.4,1.6,0.7,2.1,0.7c0.8,0,1.8-0.3,1.8-1.3c0-1.7-4.1-1.6-4.1-4.2
			c0-1.9,1.4-2.9,3.3-2.9c0.8,0,1.5,0.2,2.1,0.4l-0.1,1.5c-0.4-0.2-1.4-0.5-1.8-0.5c-0.9,0-1.7,0.4-1.7,1.1c0,1.9,4.1,1.4,4.1,4.3
			c0,2-1.6,2.9-3.3,2.9c-0.9,0-1.8-0.1-2.6-0.5L273.7,34.4z"/>
		<path style="fill:#193256;" d="M281.5,26.9h1.7v1.3h0c0.5-0.7,1.5-1.5,3.2-1.5c2.7,0,4,2.2,4,4.7c0,2.6-1.2,5.1-4,5.1
			c-1.7,0-2.6-0.6-3.1-1.5h0v5.1h-1.7V26.9z M286,28.1c-1.9,0-2.8,1.8-2.8,3.5c0,1.6,0.8,3.5,2.8,3.5c1.9,0,2.6-2.1,2.6-3.5
			C288.6,29.9,287.8,28.1,286,28.1"/>
		<rect x="292.8" y="22.5" style="fill:#193256;" width="1.7" height="13.8"/>
		<path style="fill:#193256;" d="M298,27.6c0.9-0.5,1.9-0.9,3.1-0.9c2.7,0,3.8,1.3,3.8,3.9v3.9c0,1.1,0,1.6,0.1,1.8h-1.6V35h0
			c-0.4,0.6-1.3,1.4-2.9,1.4c-2,0-3.4-0.9-3.4-2.9c0-2.3,2.6-3.1,4.3-3.1c0.7,0,1.2,0,1.8,0c0-1.6-0.6-2.4-2.3-2.4c-1,0-2,0.4-2.7,1
			L298,27.6z M303.1,31.8c-0.4,0-0.7,0-1.1,0c-0.9,0-3.2,0.1-3.2,1.8c0,1,1,1.5,1.7,1.5c1.7,0,2.6-1.1,2.6-2.5V31.8z"/>
		<path style="fill:#193256;" d="M313.6,28.5c-0.7-0.3-1.3-0.4-1.9-0.4c-1.9,0-3,1.7-3,3.5c0,1.7,0.9,3.5,3.1,3.5
			c0.6,0,1.3-0.2,1.8-0.5l0.1,1.5c-0.7,0.3-1.5,0.4-2.2,0.4c-2.8,0-4.8-2.2-4.8-4.9c0-2.8,1.9-4.9,4.8-4.9c0.7,0,1.6,0.2,2.1,0.4
			L313.6,28.5z"/>
		<path style="fill:#193256;" d="M322.9,35.9c-0.7,0.2-1.4,0.6-3,0.6c-3.3,0-4.8-2-4.8-5.1c0-2.8,1.7-4.7,4.4-4.7
			c3.1,0,4.1,2.3,4.1,5.3h-6.7c0,1.9,1.4,3.1,3.1,3.1c1.1,0,2.5-0.6,2.9-0.9V35.9z M321.8,30.7c0-1.4-0.8-2.6-2.3-2.6
			c-1.7,0-2.4,1.4-2.5,2.6H321.8z"/>
		<path style="fill:#193256;" d="M325.8,26.9h1.6v1.4h0c0.7-1.1,1.6-1.6,3-1.6c1.1,0,2.2,0.6,2.7,1.8c0.6-1.3,2.1-1.8,2.9-1.8
			c2.4,0,3.2,1.5,3.2,3.6v6h-1.7v-5.6c0-1.2-0.3-2.6-1.7-2.6c-1.8,0-2.5,1.7-2.5,3.5v4.7h-1.7v-5.6c0-1.2-0.3-2.6-1.7-2.6
			c-1.8,0-2.5,1.7-2.5,3.5v4.7h-1.7V26.9z"/>
		<path style="fill:#193256;" d="M349.2,35.9c-0.7,0.2-1.4,0.6-3,0.6c-3.3,0-4.8-2-4.8-5.1c0-2.8,1.7-4.7,4.4-4.7
			c3.1,0,4.1,2.3,4.1,5.3h-6.7c0,1.9,1.4,3.1,3.1,3.1c1.1,0,2.5-0.6,2.9-0.9V35.9z M348.1,30.7c0-1.4-0.8-2.6-2.3-2.6
			c-1.7,0-2.4,1.4-2.5,2.6H348.1z"/>
		<path style="fill:#193256;" d="M352.2,26.9h1.7v1.5h0c0.5-1.1,1.8-1.7,3.1-1.7c2.4,0,3.5,1.5,3.5,4v5.6h-1.7v-4.8
			c0-2.2-0.5-3.2-2-3.3c-2,0-2.8,1.6-2.8,3.8v4.3h-1.7V26.9z"/>
		<path style="fill:#193256;" d="M368.2,28.3h-2.5v5.1c0,1.1,0.7,1.7,1.4,1.7c0.5,0,0.9-0.2,1.2-0.3v1.5c-0.4,0.1-0.9,0.3-1.5,0.3
			c-1.8,0-2.9-0.8-2.9-2.7v-5.5h-2.1v-1.4h2.1v-2.2l1.7-0.5v2.7h2.5V28.3z"/>
		<path style="fill:#193256;" d="M258.3,47.4h1.6v1.4h0c0.7-1.1,1.6-1.6,3-1.6c1.1,0,2.2,0.6,2.7,1.8c0.6-1.3,2.1-1.8,2.9-1.8
			c2.4,0,3.2,1.5,3.2,3.6v6H270v-5.6c0-1.2-0.3-2.6-1.7-2.6c-1.8,0-2.5,1.7-2.5,3.5v4.7h-1.7v-5.6c0-1.2-0.3-2.6-1.7-2.6
			c-1.8,0-2.5,1.7-2.5,3.5v4.7h-1.7V47.4z"/>
		<path style="fill:#193256;" d="M278.8,47.2c2.8,0,4.8,2.1,4.8,4.9c0,2.7-1.9,4.9-4.8,4.9c-2.8,0-4.8-2.2-4.8-4.9
			C274,49.2,275.9,47.2,278.8,47.2 M278.8,55.6c2,0,2.9-1.8,2.9-3.5c0-1.8-1.1-3.5-2.9-3.5c-1.9,0-2.9,1.7-2.9,3.5
			C275.8,53.7,276.7,55.6,278.8,55.6"/>
		<path style="fill:#193256;" d="M285.8,47.4h1.7v1.5h0c0.5-1.1,1.8-1.7,3.1-1.7c2.4,0,3.5,1.5,3.5,4v5.6h-1.7v-4.8
			c0-2.2-0.5-3.2-2-3.3c-2,0-2.8,1.6-2.8,3.9v4.3h-1.7V47.4z"/>
		<path style="fill:#193256;" d="M299.1,45.3h-1.9v-1.9h1.9V45.3z M297.2,47.4h1.7v9.3h-1.7V47.4z"/>
		<path style="fill:#193256;" d="M307.1,48.8h-2.5v5.1c0,1.1,0.7,1.7,1.4,1.7c0.5,0,0.9-0.2,1.2-0.3v1.5c-0.4,0.1-0.9,0.3-1.5,0.3
			c-1.8,0-2.9-0.8-2.9-2.7v-5.5h-2.1v-1.4h2.1v-2.2l1.7-0.5v2.7h2.5V48.8z"/>
		<path style="fill:#193256;" d="M313.4,47.2c2.8,0,4.7,2.1,4.7,4.9c0,2.7-1.9,4.9-4.7,4.9c-2.8,0-4.8-2.2-4.8-4.9
			C308.6,49.2,310.5,47.2,313.4,47.2 M313.4,55.6c2,0,2.9-1.8,2.9-3.5c0-1.8-1.1-3.5-2.9-3.5c-1.9,0-2.9,1.7-2.9,3.5
			C310.5,53.7,311.4,55.6,313.4,55.6"/>
		<path style="fill:#193256;" d="M320.4,47.4h1.6v1.4h0c0.5-1,1.5-1.7,2.4-1.7c0.5,0,0.8,0.1,1.1,0.1v1.5c-0.3-0.1-0.7-0.2-1-0.2
			c-1.5,0-2.6,1.5-2.6,3.8v4.3h-1.7V47.4z"/>
		<path style="fill:#193256;" d="M329.6,45.3h-1.9v-1.9h1.9V45.3z M327.8,47.4h1.7v9.3h-1.7V47.4z"/>
		<path style="fill:#193256;" d="M332.7,47.4h1.7v1.5h0c0.5-1.1,1.8-1.7,3.1-1.7c2.4,0,3.5,1.5,3.5,4v5.6h-1.7v-4.8
			c0-2.2-0.5-3.2-2-3.3c-2,0-2.8,1.6-2.8,3.9v4.3h-1.7V47.4z"/>
		<path style="fill:#193256;" d="M352.1,56.3c0,2.8-1.5,4.5-4.8,4.5c-1,0-1.9-0.1-3.4-0.6l0.2-1.6c1.3,0.6,2.1,0.8,3.4,0.8
			c1.8,0,2.9-1.2,2.9-3.2v-0.9h0c-0.7,1-1.9,1.4-3.1,1.4c-2.7,0-4-2.2-4-4.6c0-2.4,1.4-5,4.2-5c1.7,0,2.6,0.6,3.1,1.6h0v-1.4h1.6
			V56.3z M350.4,52.2c0-1.9-0.9-3.6-2.7-3.6c-1.7,0-2.6,1.9-2.6,3.5c0,1.8,1,3.3,2.6,3.3C349.3,55.3,350.4,53.9,350.4,52.2"/>
		<path style="fill:#193256;" d="M264.3,68.7c-0.7-0.3-1.3-0.4-1.9-0.4c-1.9,0-3,1.7-3,3.5c0,1.7,0.9,3.5,3.1,3.5
			c0.6,0,1.3-0.2,1.8-0.5l0.1,1.5c-0.7,0.3-1.5,0.4-2.2,0.4c-2.8,0-4.8-2.2-4.8-4.9c0-2.8,1.9-4.9,4.8-4.9c0.7,0,1.6,0.2,2.1,0.4
			L264.3,68.7z"/>
		<path style="fill:#193256;" d="M273.6,76c-0.7,0.2-1.4,0.6-2.9,0.6c-3.3,0-4.8-2-4.8-5.1c0-2.8,1.7-4.7,4.4-4.7
			c3.1,0,4.1,2.3,4.1,5.3h-6.7c0,1.9,1.4,3.1,3.1,3.1c1.1,0,2.5-0.6,2.9-0.9V76z M272.5,70.9c0-1.4-0.8-2.6-2.3-2.6
			c-1.7,0-2.4,1.4-2.5,2.6H272.5z"/>
		<path style="fill:#193256;" d="M276.6,67.1h1.7v1.5h0c0.5-1.1,1.8-1.7,3.1-1.7c2.4,0,3.5,1.5,3.5,4v5.6h-1.7v-4.8
			c0-2.2-0.5-3.2-2-3.3c-2,0-2.8,1.6-2.8,3.8v4.3h-1.7V67.1z"/>
		<path style="fill:#193256;" d="M292.8,68.5h-2.5v5.1c0,1.1,0.7,1.7,1.4,1.7c0.5,0,0.9-0.2,1.2-0.3v1.5c-0.4,0.1-0.9,0.3-1.5,0.3
			c-1.8,0-2.9-0.8-2.9-2.7v-5.5h-2.1v-1.4h2.1v-2.2l1.7-0.5v2.7h2.5V68.5z"/>
		<path style="fill:#193256;" d="M295,67.1h1.6v1.4h0c0.5-1,1.4-1.7,2.4-1.7c0.5,0,0.8,0.1,1.1,0.1v1.5c-0.3-0.1-0.7-0.2-1-0.2
			c-1.5,0-2.5,1.5-2.5,3.8v4.3H295V67.1z"/>
		<path style="fill:#193256;" d="M309.3,76c-0.7,0.2-1.4,0.6-3,0.6c-3.3,0-4.8-2-4.8-5.1c0-2.8,1.7-4.7,4.4-4.7
			c3.1,0,4.1,2.3,4.1,5.3h-6.7c0,1.9,1.4,3.1,3.1,3.1c1.1,0,2.5-0.6,2.9-0.9V76z M308.2,70.9c0-1.4-0.8-2.6-2.3-2.6
			c-1.7,0-2.4,1.4-2.5,2.6H308.2z"/>
	</g>
</g>
</svg>
